<svg width="24" height="25" viewBox="0 0 24 25" fill="none" xmlns="http://www.w3.org/2000/svg">
<mask id="mask0_79092_1973" style="mask-type:alpha" maskUnits="userSpaceOnUse" x="0" y="0" width="24" height="25">
<rect y="0.5" width="24" height="24" fill="#D9D9D9"/>
</mask>
<g mask="url(#mask0_79092_1973)">
<path d="M7.25044 20.5C6.93377 20.5 6.67544 20.375 6.47544 20.125C6.27544 19.875 6.2171 19.6 6.30044 19.3L7.00044 16.5H4.77544C4.4421 16.5 4.17544 16.371 3.97544 16.113C3.77544 15.8543 3.7171 15.5667 3.80044 15.25C3.85044 15.0167 3.9671 14.8333 4.15044 14.7C4.33377 14.5667 4.5421 14.5 4.77544 14.5H7.50044L8.50044 10.5H5.77544C5.4421 10.5 5.17544 10.371 4.97544 10.113C4.77544 9.85433 4.7171 9.56667 4.80044 9.25C4.85044 9.01667 4.9671 8.83333 5.15044 8.7C5.33377 8.56667 5.5421 8.5 5.77544 8.5H9.00044L9.82544 5.225C9.87544 5.00833 9.98377 4.83333 10.1504 4.7C10.3171 4.56667 10.5171 4.5 10.7504 4.5C11.0671 4.5 11.3254 4.625 11.5254 4.875C11.7254 5.125 11.7838 5.4 11.7004 5.7L11.0004 8.5H15.0004L15.8254 5.225C15.8754 5.00833 15.9838 4.83333 16.1504 4.7C16.3171 4.56667 16.5171 4.5 16.7504 4.5C17.0671 4.5 17.3254 4.625 17.5254 4.875C17.7254 5.125 17.7838 5.4 17.7004 5.7L17.0004 8.5H19.2254C19.5588 8.5 19.8254 8.629 20.0254 8.887C20.2254 9.14567 20.2838 9.43333 20.2004 9.75C20.1504 9.98333 20.0338 10.1667 19.8504 10.3C19.6671 10.4333 19.4588 10.5 19.2254 10.5H16.5004L15.5004 14.5H18.2254C18.5588 14.5 18.8254 14.629 19.0254 14.887C19.2254 15.1457 19.2838 15.4333 19.2004 15.75C19.1504 15.9833 19.0338 16.1667 18.8504 16.3C18.6671 16.4333 18.4588 16.5 18.2254 16.5H15.0004L14.1754 19.775C14.1254 19.9917 14.0171 20.1667 13.8504 20.3C13.6838 20.4333 13.4838 20.5 13.2504 20.5C12.9338 20.5 12.6754 20.375 12.4754 20.125C12.2754 19.875 12.2171 19.6 12.3004 19.3L13.0004 16.5H9.00044L8.17544 19.775C8.12544 19.9917 8.0171 20.1667 7.85044 20.3C7.68377 20.4333 7.48377 20.5 7.25044 20.5ZM9.50044 14.5H13.5004L14.5004 10.5H10.5004L9.50044 14.5Z" fill="black"/>
</g>
</svg>
